<svg width="746" height="336" viewBox="0 0 746 336" fill="none" xmlns="http://www.w3.org/2000/svg">
<g clip-path="url(#clip0_3_20)">
<path d="M0.288 330V0.783997H142.624C261.92 0.783997 312.608 46.864 312.608 103.696C312.608 181.52 221.984 188.688 185.12 191.76V203.024H268.576L319.264 330H174.88L128.288 216.336H116L136.48 330H0.288ZM130.336 108.816V160.528C135.968 161.04 142.112 161.04 145.696 161.04C171.808 161.04 184.608 151.824 184.608 134.416C184.608 117.52 171.808 108.304 145.696 108.304C142.112 108.304 135.968 108.304 130.336 108.816ZM320.644 185.616C320.644 89.36 378.5 35.088 469.124 35.088C552.068 35.088 606.852 84.752 616.068 161.552V180.496H445.572C446.084 207.632 452.74 221.968 469.124 221.968C483.46 221.968 490.116 213.264 492.164 197.392H617.604C612.484 286.48 556.676 336.144 469.124 336.144C378.5 336.144 320.644 275.728 320.644 185.616ZM446.084 161.552H490.116C487.556 141.584 480.9 130.832 469.124 130.832C455.3 130.832 447.62 141.584 446.084 161.552Z" fill="#CCF927"/>
<path d="M735.983 235.46C741.831 240.963 745.483 248.773 745.483 257.436C745.483 274.099 731.975 287.607 715.312 287.607H707.171C690.508 287.607 677 274.099 677 257.436C677 248.867 680.572 241.133 686.308 235.641L711.044 257.436L735.983 235.46Z" fill="#CCF927"/>
<path d="M715.654 214.474C723.654 214.474 730.926 217.589 736.325 222.67L711.386 244.645L686.649 222.85C692.068 217.662 699.418 214.474 707.513 214.474H715.654Z" fill="#CCF927"/>
<path d="M686.5 144.146C680.652 138.644 677 130.834 677 122.171C677 105.508 690.508 92 707.171 92H715.312C731.975 92 745.483 105.508 745.483 122.171C745.483 130.739 741.912 138.474 736.176 143.966L711.439 122.171L686.5 144.146Z" fill="#CCF927"/>
<path d="M707.041 164.465C699.042 164.465 691.77 161.35 686.37 156.269L711.31 134.294L736.046 156.089C730.627 161.277 723.277 164.465 715.183 164.465H707.041Z" fill="#CCF927"/>
</g>
<defs>
<clipPath id="clip0_3_20">
<rect width="746" height="336" fill="white"/>
</clipPath>
</defs>
</svg>
