<svg width="2025" height="336" viewBox="0 0 2025 336" fill="none" xmlns="http://www.w3.org/2000/svg">
<g clip-path="url(#clip0_3_20)">
<path d="M0.288 330V0.783997H142.624C261.92 0.783997 312.608 46.864 312.608 103.696C312.608 181.52 221.984 188.688 185.12 191.76V203.024H268.576L319.264 330H174.88L128.288 216.336H116L136.48 330H0.288ZM130.336 108.816V160.528C135.968 161.04 142.112 161.04 145.696 161.04C171.808 161.04 184.608 151.824 184.608 134.416C184.608 117.52 171.808 108.304 145.696 108.304C142.112 108.304 135.968 108.304 130.336 108.816ZM320.644 185.616C320.644 89.36 378.5 35.088 469.124 35.088C552.068 35.088 606.852 84.752 616.068 161.552V180.496H445.572C446.084 207.632 452.74 221.968 469.124 221.968C483.46 221.968 490.116 213.264 492.164 197.392H617.604C612.484 286.48 556.676 336.144 469.124 336.144C378.5 336.144 320.644 275.728 320.644 185.616ZM446.084 161.552H490.116C487.556 141.584 480.9 130.832 469.124 130.832C455.3 130.832 447.62 141.584 446.084 161.552Z" fill="#CCF927"/>
<path d="M789.144 185.616C789.144 89.36 847 35.088 937.624 35.088C1028.76 35.088 1086.1 95.504 1086.1 185.616C1086.1 281.872 1028.76 336.144 937.624 336.144C847 336.144 789.144 275.728 789.144 185.616ZM914.072 185.616C914.072 209.68 920.728 221.968 937.624 221.968C955.032 221.968 961.176 209.68 961.176 185.616C961.176 161.552 955.032 149.264 937.624 149.264C920.728 149.264 914.072 161.552 914.072 185.616ZM1399.71 330H1278.37L1278.88 262.416H1266.59C1260.45 310.544 1233.82 336.144 1195.94 336.144C1140.64 336.144 1098.14 289.552 1098.14 195.344C1098.14 89.36 1152.42 35.088 1238.94 35.088C1250.72 56.592 1272.22 99.6 1281.95 126.736H1294.24L1269.66 41.232V-29.936H1399.71V330ZM1246.11 221.968C1260.45 221.968 1269.66 213.264 1269.66 195.856V175.888C1269.66 160.016 1260.45 149.264 1246.11 149.264C1229.22 149.264 1223.07 161.552 1223.07 185.616C1223.07 209.68 1229.22 221.968 1246.11 221.968ZM1418.14 185.616C1418.14 89.36 1476 35.088 1566.62 35.088C1657.76 35.088 1715.1 95.504 1715.1 185.616C1715.1 281.872 1657.76 336.144 1566.62 336.144C1476 336.144 1418.14 275.728 1418.14 185.616ZM1543.07 185.616C1543.07 209.68 1549.73 221.968 1566.62 221.968C1584.03 221.968 1590.18 209.68 1590.18 185.616C1590.18 161.552 1584.03 149.264 1566.62 149.264C1549.73 149.264 1543.07 161.552 1543.07 185.616ZM1732.26 186.64C1726.12 79.12 1767.08 35.088 1872.04 35.088C1972.39 35.088 2014.89 80.656 2024.62 161.552L1899.69 171.28C1898.15 156.944 1890.98 143.12 1877.67 143.12C1862.82 143.12 1853.61 148.752 1853.61 160.528L1854.12 174.352C1915.56 178.448 1978.02 185.104 2007.72 188.176C2016.42 202 2021.54 229.648 2021.54 248.08C2021.54 304.4 1969.32 336.144 1875.11 336.144C1779.37 336.144 1736.36 302.864 1727.14 219.408L1854.12 212.24C1856.68 219.408 1861.29 234.256 1878.7 234.256C1889.96 234.256 1896.62 228.112 1896.62 217.36V205.072C1829.03 198.416 1765.03 190.736 1732.26 186.64Z" fill="white"/>
<path d="M730.983 235.46C736.831 240.963 740.483 248.773 740.483 257.436C740.483 274.099 726.975 287.607 710.312 287.607H702.171C685.508 287.607 672 274.099 672 257.436C672 248.867 675.572 241.133 681.308 235.641L706.044 257.436L730.983 235.46Z" fill="#CCF927"/>
<path d="M710.654 214.474C718.654 214.474 725.926 217.589 731.325 222.67L706.386 244.645L681.649 222.85C687.068 217.662 694.418 214.474 702.513 214.474H710.654Z" fill="#CCF927"/>
<path d="M681.5 144.146C675.652 138.644 672 130.834 672 122.171C672 105.508 685.508 92 702.171 92H710.312C726.975 92 740.483 105.508 740.483 122.171C740.483 130.739 736.912 138.474 731.176 143.966L706.439 122.171L681.5 144.146Z" fill="#CCF927"/>
<path d="M702.041 164.465C694.042 164.465 686.77 161.35 681.37 156.269L706.31 134.294L731.046 156.089C725.627 161.277 718.277 164.465 710.183 164.465H702.041Z" fill="#CCF927"/>
</g>
<defs>
<clipPath id="clip0_3_20">
<rect width="2025" height="336" fill="white"/>
</clipPath>
</defs>
</svg>
